<svg id="Layer_1" xmlns="http://www.w3.org/2000/svg" viewBox="0 0 486 470"><style>.st0{fill:#e5e5e5;opacity:.05}</style><title>Pattern</title><g id="Landings"><g id="Pattern"><path id="Fill-489" class="st0" d="M53.9 46.8h16.9V51l-.8-1.1c-.6-.8-1.8-1-2.6-.3-.8.6-1 1.8-.3 2.6l4.2 5.4c.3.4.9.7 1.4.7.6 0 1.1-.2 1.4-.7l4.5-5.4c.7-.8.6-2-.2-2.6-.8-.7-2-.6-2.6.2l-1.2 1.5v-4.5h18.6c6-.3 10.7-5.2 10.7-11.3 0-5.9-4.6-10.8-10.4-11.3-.7-6.2-6-11.1-12.4-11.1-1.5 0-2.9.2-4.2.7-2.6-3.1-6.4-5-10.5-5-7.1 0-13 5.6-13.5 12.6C46.7 22.5 42 27.8 42 34.2c0 6.7 5.2 12.2 11.9 12.6zm.8-21.6c.6 0 1.1-.2 1.5-.6.4-.4.5-.9.5-1.4v-.6c0-5.4 4.4-9.8 9.8-9.8 3.4 0 6.4 1.7 8.3 4.6.5.8 1.6 1.1 2.4.7 1.3-.6 2.6-1 4-1 4.8 0 8.8 3.9 8.8 8.8v.4c0 .5.2 1.1.6 1.4.4.4.9.6 1.5.5h.7c4.2 0 7.5 3.4 7.5 7.5s-3.2 7.4-7.3 7.5H74.7V28.6c0-1-.8-1.9-1.9-1.9s-1.9.8-1.9 1.9v14.5H54.3c-4.8-.2-8.6-4.1-8.6-8.9.1-5 4-9 9-9z"/><path id="Fill-491" class="st0" d="M77.3 181.9c-.6-.3-1.4-.1-1.9.4l-13.3 13.8c-.3-.3-.6-.7-.9-1-.3-.3-.6-.6-1-.9l14-13.2c.5-.5.7-1.2.4-1.9-.3-.6-.9-1.1-1.6-1.1H25.5c-.7 0-1.3.4-1.6 1.1-.3.6-.1 1.4.4 1.9l13.8 13.3c-.7.6-1.3 1.2-1.9 1.8L23 182.2c-.5-.5-1.2-.7-1.9-.4-.6.3-1.1.9-1.1 1.6v47.5c0 .6.4 1.2.9 1.5 0 0 .1 0 .1.1.6.3 1.4.1 1.9-.4l13.2-13.8c.6.7 1.2 1.3 1.9 1.8l-13.8 13.2c-.5.5-.7 1.2-.4 1.9.2.4.5.7.8.9.2.1.5.2.8.2h22.1v7.4L27.6 255c-.8.5-1.1 1.5-.6 2.3.2.3.4.5.7.7.5.2 1.1.3 1.6 0l18.2-10.4v11.9c0 .7.4 1.2.9 1.5.2.1.5.2.8.2.9 0 1.7-.8 1.7-1.7v-11.9L69 258h.1c.8.4 1.8.1 2.2-.7.5-.8.2-1.9-.6-2.3l-19.8-11.4v-7.4H73c.7 0 1.3-.4 1.6-1.1.3-.6.1-1.4-.4-1.9L60.4 220c.3-.3.7-.6 1-.9.3-.3.6-.6.9-1l13.2 13.8c.1.1.3.3.5.3.4.2.9.2 1.4.1.6-.3 1.1-.9 1.1-1.6l.1-47.5c-.2-.4-.7-1.1-1.3-1.3zm-47.6-.5l39.1.1-11.2 10.8c-2.5-1.4-5.3-2.2-8.3-2.2-3 0-5.8.8-8.3 2.1l-11.3-10.8zm4.5 34.1l-10.8 11.2.1-39.1 10.8 11.2c-1.4 2.5-2.2 5.3-2.2 8.3 0 3.1.7 5.9 2.1 8.4zm34.5 17.4l-39.1-.1L40.8 222l.6.3c2.3 1.2 4.9 1.8 7.7 1.8 3 0 5.8-.7 8.3-2.1l11.3 10.9zm-9.8-16c-2.6 2.6-6 4-9.7 4-3.7 0-7.1-1.4-9.7-4-2.6-2.6-4-6-4-9.7 0-7.6 6.2-13.7 13.7-13.7 2.2 0 4.3.5 6.1 1.5 1.3.7 2.5 1.5 3.6 2.6 2.6 2.6 4 6 4 9.7 0 3.6-1.4 7-4 9.6zm16 9.8l-10.8-11.2c1.4-2.5 2.2-5.3 2.2-8.3 0-3-.7-5.8-2.1-8.3L75 187.7l-.1 39z"/><g id="Group-5"><path id="Fill-461" class="st0" d="M232.7 272.4v-26c0-.7-.6-1.3-1.3-1.3l-41.6-.1 39.3-10.6c.1 0 .2-.1.3-.1.2-.1.4-.3.5-.6.2-.3.2-.7 0-1.1l-3.7-8.9c-.3-.6-.9-.9-1.6-.8L176 236c-.4.1-.7.3-.8.7-.2.3-.2.7 0 1.1l3.6 8.7v25.8c0 4.5 4.4 8.2 9.8 8.2h34.5c2.1 0 4-.5 5.6-1.5 2.4-1.4 4-3.9 4-6.6zm-15.9-24.8l6.1 6.8h-5.6s0-.1-.1-.1l-6.1-6.7h5.7zm-9.1 0l6.1 6.8h-5.6s0-.1-.1-.1l-6.1-6.7h5.7zm-9.1 0l6.1 6.8h-5.6s0-.1-.1-.1l-6.1-6.7h5.7zm-2.9 6.8h-5.6s0-.1-.1-.1l-6-6.7h5.5l6.2 6.8zm-9.1 0h-5.3v-5.8l5.3 5.8zm37.8-28.7l.2.5-.7-.4.5-.1zm-4.1 1.1l5.9 3.4.8 2-3.2.8-.1-.1-8.4-4.8 5-1.3zm-8.6 2.3l8.5 4.9-5.1 1.4-.1-.1-8.4-4.8 5.1-1.4zm-8.7 2.3l8.5 4.9-5.1 1.4-.1-.1-8.3-4.8 5-1.4zm-8.6 2.4l8.5 4.9-5 1.3-.1-.1-8.4-4.8 5-1.3zm-8.6 2.3l8.5 4.9-5.1 1.4-.1-.1-8.4-4.8 5.1-1.4zm-5.1 8.6l-2.2-5.4 7.1 4.1-4.9 1.3zm49.4 27.7c0 3.1-3.2 5.6-7.2 5.6h-34.5c-4 0-7.2-2.5-7.2-5.6v-15.3l48.8.1.1 15.2zm0-18h-3.6s0-.1-.1-.1l-6.1-6.7h5.5l4.2 4.6.1 2.2zm0-6.1l-.6-.7h.6v.7z"/><path id="Fill-462" class="st0" d="M221.7 276c.2 0 .5-.1.7-.2.4-.2.7-.7.7-1.1v-14.2c0-.7-.6-1.3-1.3-1.3-.7 0-1.3.6-1.3 1.3v14.2c-.2.7.4 1.3 1.2 1.3"/></g><g id="Group-6"><path id="Fill-469" class="st0" d="M187.9 430.9c1.5 0 2.9-.2 4.3-.6 2.4-.7 4.6-2.1 6.5-4 2.9-3 4.4-6.9 4.4-11v-19.4c0-4.1-1.6-8.1-4.4-11-2.9-3-6.7-4.6-10.7-4.6-4 0-7.9 1.6-10.7 4.6-2.9 3-4.4 6.9-4.4 11v19.4c0 4.1 1.6 8.1 4.4 11 2.7 3 6.5 4.6 10.6 4.6zm-11.4-35c0-3.1 1.2-6 3.3-8.3v10c0 1 .8 1.9 1.9 1.9.2 0 .4 0 .5-.1.8-.2 1.3-.9 1.3-1.8v-12.7c.4-.2.8-.3 1.2-.5.4-.1.9-.2 1.3-.3v13.5c0 1 .8 1.9 1.9 1.9.2 0 .4 0 .5-.1.8-.2 1.3-.9 1.3-1.8v-13.5c.8.1 1.6.4 2.4.7v12.8c0 1 .8 1.9 1.9 1.9.2 0 .4 0 .5-.1.8-.2 1.3-.9 1.3-1.8v-10.2c2.2 2.3 3.4 5.2 3.4 8.4v19.4c0 3.2-1.2 6.2-3.4 8.4s-5 3.5-8 3.5-5.9-1.2-8-3.5c-2.2-2.3-3.4-5.2-3.4-8.4l.1-19.3z"/><path id="Fill-470" class="st0" d="M186 437.8v7h-7c-1 0-1.9.8-1.9 1.9 0 1 .8 1.9 1.9 1.9h17.6c.2 0 .4 0 .5-.1.8-.2 1.3-.9 1.3-1.8 0-1-.8-1.9-1.9-1.9h-7v-7c1.5-.1 2.9-.4 4.3-.8 9.1-2.8 15.8-11.5 15.8-21.7v-10.5c0-1-.8-1.9-1.9-1.9-1 0-1.9.8-1.9 1.9v10.5c0 10.4-8.2 18.9-18.2 18.9-4.8 0-9.4-2-12.8-5.5-3.2-3.7-5.1-8.4-5.1-13.5v-10.5c0-1-.8-1.9-1.9-1.9-1 0-1.9.8-1.9 1.9v10.5c0 6 2.3 11.7 6.4 16 3.8 3.9 8.6 6.2 13.7 6.6"/></g><path id="Fill-490" class="st0" d="M29.7 336.4c-.8.1-1.4.6-1.7 1.3-.2.7 0 1.5.6 2l18.7 15.5-5.9 23.6c-.2.7.1 1.5.7 2 .2.2.5.3.7.3.5.1 1 0 1.4-.3l20.5-13 20.6 12.9c.7.4 1.5.4 2.1-.1.6-.5.9-1.2.7-2l-6-23.5 18.7-15.6c.6-.5.8-1.3.6-2-.2-.7-.9-1.2-1.7-1.3l-24.2-1.6-9-22.5c-.3-.7-1-1.2-1.7-1.2-.8 0-1.5.5-1.7 1.2l-9 22.6-24.4 1.7zm27.3.8l7.7-19.3 7.7 19.3c.3.7.9 1.1 1.6 1.2l20.7 1.3-16 13.3c-.6.5-.8 1.2-.6 1.9l5.1 20.1-17.4-11c-.6-.4-1.4-.4-2 0l-17.6 11.1 5.1-20.2c.2-.7-.1-1.4-.6-1.9l-16-13.3 20.7-1.4c.7.1 1.4-.4 1.6-1.1z"/><g id="Group-7"><path id="Fill-512" class="st0" d="M429.9 445.9c17.1 0 31-13.9 31-31 0-17-13.9-30.9-31-30.9-17 0-30.9 13.9-30.9 30.9 0 17.1 13.9 31 30.9 31zm0-58.2c15 0 27.2 12.2 27.2 27.2s-12.2 27.2-27.2 27.2-27.2-12.2-27.2-27.2 12.2-27.2 27.2-27.2z"/><path id="Fill-513" class="st0" d="M417.9 433.2c.7.4 1.6.6 2.4.6 1.3 0 2.8-.5 4.2-1.4l17.7-11.6c2.3-1.5 3.6-3.7 3.6-5.9s-1.3-4.4-3.6-5.9l-17.6-11.6c-2.4-1.6-4.7-1.8-6.6-.8-1.9 1-2.9 3.2-2.9 6v24.7c-.1 2.8.9 4.9 2.8 5.9zm.9-30.6c0-1.4.4-2.4 1-2.7.2-.1.4-.1.6-.1.6 0 1.3.3 2.2.8l17.7 11.6c1.2.8 1.9 1.8 1.9 2.8 0 1-.7 2-1.9 2.8l-17.8 11.5c-1.1.7-2.2 1-2.8.7-.6-.3-1-1.3-1-2.7v-24.7h.1z"/></g><path id="Fill-514" class="st0" d="M445.9 280c0-1.5-.8-2.8-2.2-3.7l-5.6-3.6v-3.9c0-13.7-10.5-24.8-23.2-24.8-12.8 0-23.1 11.2-23 25v3.9l-5.6 3.7c-1.4.9-2.2 2.3-2.2 3.8s.8 2.8 2.2 3.7l8.9 5.8c1.1.7 2.2 1 3.2.8.4-.1.8-.2 1.1-.4 1.2-.7 2-2.1 2-3.8v-12.4c0-1.8-.7-3.2-2-3.8-1.1-.6-2.5-.5-3.9.2v-1.4c0-11.7 8.6-21.2 19.3-21.2 10.7 0 19.4 9.4 19.5 21.1v1.4c-1.3-.7-2.7-.8-3.9-.2-1.2.7-2 2.1-2 3.8v12.4c0 1.8.7 3.1 2 3.8.7.4 1.4.5 2.2.4.7-.1 1.4-.4 2.1-.8l8.9-5.8c1.4-1.1 2.2-2.5 2.2-4zm-48.7-6.2c.2-.1.3-.2.4-.2v13.3c-.1 0-.2-.1-.4-.2l-8.9-5.8c-.4-.2-.5-.5-.5-.6 0-.1.2-.4.5-.6l8.9-5.9zm44.4 6.9l-8.9 5.8c-.2.1-.3.2-.4.2v-13.3c.1 0 .2.1.4.2l8.9 5.8c.4.2.5.5.5.6 0 .2-.1.4-.5.7z"/><g id="Group"><path id="Fill-518" class="st0" d="M396.8 110.5h16.8v2.7c0 1 .8 1.8 1.8 1.8s1.8-.8 1.8-1.8v-2.7H434c4.3 0 7.8-3.5 7.8-7.7v-.5l7.5 3.4c1.3 1 2.3 1.3 3.2 1.3.6 0 1.1-.2 1.4-.3.6-.3 2-1.2 2-3.8V82.6c0-2.6-1.4-3.5-2-3.8-.8-.4-2.4-.7-4.6 1l-7.5 3.4v-.5c0-4.2-3.5-7.7-7.8-7.7h-37.2c-4.3 0-7.8 3.5-7.8 7.7v20.1c0 4.2 3.5 7.7 7.8 7.7zm45.1-23.4l9.2-4.2c.1-.1.3-.1.4-.2.4-.3.7-.5.9-.5v21.2c-.2-.1-.5-.2-.9-.5-.1-.1-.3-.2-.4-.2l-9.2-4.2V87.1zm-49.3-4.4c0-2.3 1.9-4.1 4.2-4.1h37.3c2.3 0 4.2 1.9 4.2 4.1v20.1c0 2.3-1.9 4.1-4.2 4.1h-37.3c-2.3 0-4.2-1.9-4.2-4.1V82.7z"/><path id="Fill-519" class="st0" d="M403 73c6.6 0 12-5.4 12-12s-5.4-12-12-12-12 5.4-12 12 5.4 12 12 12zm0-20.5c4.7 0 8.5 3.8 8.5 8.5s-3.8 8.5-8.5 8.5-8.5-3.8-8.5-8.5 3.8-8.5 8.5-8.5z"/><path id="Fill-520" class="st0" d="M430 73c6.6 0 12-5.4 12-12s-5.4-12-12-12-12 5.4-12 12 5.4 12 12 12zm0-20.5c4.7 0 8.5 3.8 8.5 8.5s-3.8 8.5-8.5 8.5-8.5-3.8-8.5-8.5 3.8-8.5 8.5-8.5z"/><path id="Fill-521" class="st0" d="M399.8 102c1 0 1.8-.8 1.8-1.8V87.5h27.5c1 0 1.8-.8 1.8-1.8s-.8-1.8-1.8-1.8h-29.3c-1 0-1.8.8-1.8 1.8v14.5c0 1 .8 1.8 1.8 1.8"/></g><path id="Fill-531" class="st0" d="M331.1 385.7c.3.3.7.5 1.1.5h9.9c1 0 1.9-.8 1.9-1.9l.1-51.5c0-1-.8-1.9-1.9-1.9h-9.6c-.5 0-1 .2-1.3.5s-.6.8-.6 1.3v4.1l-35.2 12.4v-2.3c0-1-.8-1.9-1.9-1.9H284c-.5 0-1 .2-1.3.5-.4.4-.6.8-.6 1.3v23c0 .9.7 1.7 1.6 1.9h9.9c.5 0 1-.2 1.3-.5.4-.4.6-.8.6-1.3v-2.3l5.2 1.8c-1.5 6.4 2.2 13 8.6 15 .7.2 1.3.4 2 .5 5.4.8 10.8-2 13.3-7l6.2 2.2v4c-.3.8-.1 1.3.3 1.6zm3.2-13l.1-34.5v-3.5h5.8l-.1 47.8h-5.8v-9.8zm-42.7-15.4v10.9h-5.8v-19.3h5.8v8.4zm25.5 23.2c-2.1 1.1-4.6 1.3-6.9.6-4.4-1.4-6.9-5.8-6.2-10.2l16.7 6c-.7 1.5-2 2.8-3.6 3.6zm7.1-6.4c-.1 0-.2-.1-.3-.1h-.1l-28.4-10.1v-10.5l35.2-12.4-.1 35.5-6.3-2.4z"/><path id="Fill-534" class="st0" d="M320.5 156.5c-.7-.7-1.9-.7-2.7 0l-27.9 28.6-13.5-13.4c-.4-.4-.9-.6-1.4-.5-.5 0-1 .2-1.3.6l-6.2 6.8c-.7.8-.6 1.9.1 2.6l21.4 20.7c.2.2.5.4.8.5.6.2 1.4 0 1.9-.5l35.5-36.3c.3-.4.5-.8.5-1.3s-.2-1-.6-1.3l-6.6-6.5zm-30.2 41.4l-18.8-18.1 3.7-4 13.4 13.3c.4.4.8.5 1.3.5s1-.2 1.3-.6l28-28.6 3.9 3.8-32.8 33.7z"/><g id="Group-2"><path id="Fill-495" class="st0" d="M272.7 16.8c-1.6-1.7-3.7-2.9-6.2-3.4-.9-.2-1.7-.3-2.6-.3-2.3 0-4.6.7-6.6 2-2.7 1.8-4.6 4.6-5.3 7.8-.7 3.2-.1 6.5 1.7 9.2.5.8 1.2 1.5 1.8 2.2-.3 1-.7 2.1-.9 3.1-3.2 15.2 6.5 30.1 21.7 33.3 2.9.6 5.8.8 8.6.5v-3.8c-2.5.3-5.2.2-7.8-.4-13.1-2.7-21.5-15.7-18.7-28.8.1-.6.3-1.2.4-1.7.8.4 1.7.7 2.7.9 6.6 1.4 13.1-2.8 14.5-9.4.6-2.8.2-5.6-1-7.9 3.2-1 6.6-1.3 10-.9v-3.9c-.9-.1-1.9-.1-2.8-.1-3.2-.1-6.4.5-9.5 1.6zm-.4 10.4c-.8 4-4.4 6.7-8.3 6.7-.6 0-1.2-.1-1.8-.2-4.6-1-7.5-5.5-6.5-10.1.5-2.2 1.8-4.1 3.7-5.4 1.9-1.2 4.2-1.7 6.4-1.2 4.5 1.1 7.5 5.6 6.5 10.2z"/><path id="Fill-496" class="st0" d="M264.4 50.4c-.3-.7-1-1.2-1.7-1.2-.2 0-.5 0-.7.1-1 .4-1.4 1.5-1 2.4 2.9 7.1 9.1 12.3 16.5 13.8 1 .2 2-.4 2.2-1.4.2-1-.4-2-1.4-2.2-6.3-1.2-11.5-5.5-13.9-11.5"/><path id="Fill-497" class="st0" d="M282.2 33.5c-4.5 0-8.5 3.1-9.5 7.7-1.1 5.2 2.2 10.4 7.5 11.5 1.6.3 3.2.3 4.8-.2v-4c-.9.4-1.8.7-2.7.7-.4 0-.8 0-1.2-.1-3.2-.7-5.3-3.9-4.6-7.1.7-3.2 3.9-5.3 7.1-4.6.5.1 1 .3 1.5.6v-4c-.2-.1-.5-.1-.7-.2-.8-.2-1.5-.3-2.2-.3"/><path id="Fill-538" class="st0" d="M309.7 49.1c1.6-7.3.2-14.9-3.9-21.2-4.1-6.2-10.4-10.6-17.8-12.1-1-.2-2.1-.4-3.1-.5v3.8c.8.1 1.5.2 2.3.4 13.2 2.7 21.6 15.7 18.8 28.8-2.2 10.5-11 18-21.1 19.1v3.8c11.9-1.1 22.2-9.8 24.8-22.1"/><path id="Fill-539" class="st0" d="M286.2 24.5c6.1 1.3 11.2 5.5 13.7 11.3.4 1 1.5 1.4 2.5 1 1-.4 1.4-1.5 1-2.5-3-6.9-9.1-11.9-16.4-13.5h-.4c-.7 0-1.3.4-1.6 1v1.8c.2.4.6.8 1.2.9"/><path id="Fill-540" class="st0" d="M291.7 45.3c1.1-5-1.9-9.9-6.8-11.3v4c2.3 1.2 3.7 3.8 3.1 6.5-.3 1.6-1.2 2.9-2.6 3.8-.2.1-.3.2-.5.3v4c.9-.3 1.7-.7 2.5-1.2 2.3-1.4 3.8-3.6 4.3-6.1"/><path id="Fill-506" class="st0" d="M291.7 45.3c1.1-5-1.9-9.9-6.8-11.3v4c2.3 1.2 3.7 3.8 3.1 6.5-.3 1.6-1.2 2.9-2.6 3.8-.2.1-.3.2-.5.3v4c.9-.3 1.7-.7 2.5-1.2 2.3-1.4 3.8-3.6 4.3-6.1"/></g><path id="Fill-483" class="st0" d="M21.9 120.2l12.6.1c.7 0 1.3-.4 1.7-1 .3-.6.3-1.3-.1-1.9l-6.2-9.6c-.3-.5-.9-.9-1.6-.9-.4 0-.8.1-1.1.4-.2.1-.3.3-.4.5l-6.4 9.5c-.4.6-.4 1.3-.1 1.9.2.6.9 1 1.6 1zm6.3-7.9l2.8 4.3-5.6-.1 2.8-4.2z"/><path id="Fill-503" class="st0" d="M59.5 438.9c.7-.3 1.1-.9 1.1-1.7v-4.8h15.5c.5 0 .9-.2 1.3-.5.3-.3.5-.8.5-1.3v-12.2c0-1-.8-1.8-1.8-1.8H60.6v-4.8c0-.7-.4-1.4-1.1-1.7-.7-.3-1.4-.1-2 .4l-12.8 12.7-.3.3c-.2.3-.3.6-.3.9 0 .5.2.9.5 1.3l12.7 12.7c.7.7 1.5.8 2.2.5zm-2.5-8.2v2.3l-8.4-8.4 8.4-8.3v2.3c0 .5.2.9.5 1.3.3.3.8.5 1.3.5h15.5v8.6H58.8c-1-.1-1.8.7-1.8 1.7z"/><path id="Fill-477" class="st0" d="M180.6 321.2c-.3-.5-.9-.8-1.6-.9-.4 0-.8.1-1.1.4-.2.1-.3.3-.4.5l-6.4 9.5c-.4.6-.4 1.3-.1 1.9.3.6 1 1 1.6 1l12.6.1c.7 0 1.3-.4 1.7-1 .3-.6.3-1.3-.1-1.9l-6.2-9.6zm-4.5 8.7l2.8-4.2 2.8 4.3-5.6-.1z"/><path id="Fill-479" class="st0" d="M119.4 235.1H132c.7 0 1.3-.4 1.7-1 .3-.6.3-1.3-.1-1.9l-6.3-9.5c-.3-.5-.9-.8-1.6-.8-.4 0-.8.1-1.1.4-.2.1-.3.3-.4.5l-6.3 9.5c-.4.6-.4 1.3-.1 1.9.3.6 1 .9 1.6.9zm6.3-8l2.8 4.3h-5.6l2.8-4.3z"/><path id="Fill-481" class="st0" d="M117.9 461.3h12.6c.7 0 1.3-.4 1.7-1 .3-.6.3-1.3-.1-1.9l-6.3-9.5c-.3-.5-.9-.8-1.6-.8-.4 0-.8.1-1.1.4-.2.1-.3.3-.4.5l-6.3 9.5c-.4.6-.4 1.3-.1 1.9.2.5.9.9 1.6.9zm6.3-8l2.8 4.3h-5.6l2.8-4.3z"/><path id="Fill-500" class="st0" d="M204.2 41.1c.3 0 .5-.1.7-.1.7-.3 1.2-1 1.1-1.7V28.5c0-1-.8-1.9-1.9-1.9-1 0-1.9.8-1.9 1.9v10.8c.1.9 1 1.8 2 1.8"/><path id="Fill-501" class="st0" d="M205 48c.7-.3 1.2-1 1.1-1.7v-1.4c0-1-.8-1.9-1.9-1.9-1 0-1.9.8-1.9 1.9v1.4c0 1 .8 1.9 1.9 1.9.3 0 .5-.1.8-.2z"/><path id="Fill-502" class="st0" d="M116.7 111.7c-.3-.7-.9-1.1-1.7-1.1h-4.8V95.1c0-.5-.2-.9-.5-1.3-.3-.3-.8-.5-1.3-.5H96.2c-1 0-1.8.8-1.8 1.8v15.5h-4.8c-.7 0-1.4.4-1.7 1.1-.3.7-.1 1.4.4 2l12.7 12.8.3.3c.3.2.6.3.9.3.5 0 .9-.2 1.3-.5l12.7-12.7c.6-.8.8-1.5.5-2.2zm-8.3 2.5h2.3l-8.4 8.4-8.3-8.4h2.3c.5 0 .9-.2 1.3-.5.3-.3.5-.8.5-1.3V96.9h8.6v15.5c-.1 1 .7 1.8 1.7 1.8z"/><path id="Fill-517" class="st0" d="M416.7 161.5c-1.7-2.8-4.4-4.8-7.6-5.5-3.2-.8-6.5-.3-9.3 1.5-2.8 1.7-4.8 4.4-5.5 7.6-.8 3.2-.3 6.5 1.5 9.3 2.3 3.8 6.4 5.9 10.5 5.9 1.6 0 3.2-.3 4.7-.9l7.7 12.6c.4.6 1 .9 1.6.9.3 0 .7-.1 1-.3.9-.5 1.2-1.7.6-2.6l-7.7-12.6c4.5-3.9 5.7-10.6 2.5-15.9zm-6.1 13.7c-4 2.5-9.3 1.2-11.7-2.8-1.2-1.9-1.5-4.2-1-6.5.5-2.2 1.9-4.1 3.9-5.3 1.4-.8 2.9-1.3 4.4-1.3.7 0 1.4.1 2 .2 2.2.5 4.1 1.9 5.3 3.9 2.4 4.1 1.1 9.4-2.9 11.8z"/><path id="Fill-524" class="st0" d="M430.7 329.8c-.3-.5-.9-.8-1.6-.8-.4 0-.8.1-1.1.4-.2.1-.3.3-.4.5l-6.3 9.5c-.4.6-.4 1.3-.1 1.9.3.6 1 1 1.7 1h12.6c.7 0 1.3-.4 1.7-1 .3-.6.3-1.3-.1-1.9l-6.4-9.6zm-4.3 8.7l2.8-4.3 2.8 4.3h-5.6z"/><path id="Fill-526" class="st0" d="M291.4 122.4l12.6.1c.7 0 1.3-.4 1.7-1 .3-.6.3-1.3-.1-1.9l-6.2-9.6c-.3-.5-.9-.9-1.6-.9-.4 0-.8.1-1.1.4-.2.1-.3.3-.4.5l-6.4 9.5c-.4.6-.4 1.3-.1 1.9.2.6.9 1 1.6 1zm6.3-8l2.8 4.3h-5.6l2.8-4.3z"/><path id="Fill-550" class="st0" d="M289.6 271.7c.3.7.9 1.1 1.7 1.1h4.8v15.5c0 .5.2.9.5 1.3.3.3.8.5 1.3.5h12.2c1 0 1.8-.8 1.8-1.8v-15.5h4.8c.7 0 1.4-.4 1.7-1.1.3-.7.1-1.4-.4-2L305.2 257l-.3-.3c-.3-.2-.6-.3-.9-.3-.5 0-.9.2-1.3.5L290 269.7c-.5.5-.7 1.3-.4 2zm8.3-2.5h-2.3l8.4-8.4 8.3 8.4H310c-.5 0-.9.2-1.3.5-.3.3-.5.8-.5 1.3v15.5h-8.6V271c.1-1-.8-1.8-1.7-1.8z"/><g id="Group-4"><path id="Fill-486" class="st0" d="M375.8 19.7c0-.7-.6-1.2-1.2-1.2-.1 0-.2 0-.3.1.8-1.7 1.2-3.5 1.2-5.4 0-1.9-.4-3.7-1.2-5.4h.3c.1 0 .3 0 .4-.1.5-.2.8-.6.8-1.1V.9c0-.3-.1-.6-.4-.9-.2-.2-.5-.4-.9-.4h-5.7c-.7 0-1.2.6-1.2 1.2 0 .1 0 .2.1.3-1.7-.7-3.5-1.1-5.4-1.1-1.9 0-3.7.4-5.4 1.2V.9c0-.7-.5-1.2-1.2-1.2H350c-.3 0-.6.1-.9.4-.2.2-.3.5-.3.8v5.7c0 .7.6 1.2 1.2 1.2.1 0 .2 0 .3-.1-.8 1.7-1.2 3.5-1.2 5.4 0 1.9.4 3.7 1.2 5.4h-.3c-.7 0-1.2.6-1.2 1.2v5.7c0 .3.1.6.4.9.2.2.5.4.9.4h5.7c.1 0 .3 0 .4-.1.5-.2.8-.6.8-1.1 0-.1 0-.2-.1-.3 1.7.7 3.5 1.1 5.3 1.1 1.6 0 3.1-.3 4.6-.8.3-.1.5-.2.8-.3v.3c0 .7.6 1.2 1.2 1.2h5.7c.1 0 .3 0 .4-.1.5-.2.8-.6.8-1.1l.1-5.8zm-23.3-7.3zm8.6 10.6v.8c-2.4-.3-4.6-1.3-6.3-3-1.7-1.8-2.8-4-3.1-6.4h.8c.1 0 .3 0 .4-.1.5-.2.8-.6.8-1.1 0-.7-.5-1.2-1.2-1.2h-.8c.3-2.4 1.3-4.6 3-6.3 1.1-1.1 2.4-1.9 3.8-2.5.8-.3 1.6-.5 2.5-.6v.8c0 .7.6 1.2 1.2 1.2.1 0 .3 0 .4-.1.5-.2.8-.6.8-1.1v-.8c2.4.3 4.6 1.3 6.3 3 1.7 1.7 2.8 3.9 3.1 6.3h-.8c-.3 0-.6.1-.9.4-.2.2-.4.5-.4.9 0 .7.6 1.2 1.2 1.2h.8c-.5 4.9-4.5 8.8-9.3 9.4V23c0-.7-.5-1.2-1.2-1.2-.5-.1-1.1.5-1.1 1.2zm12.2-20.9v4c-.5-.8-1.1-1.5-1.8-2.2-.7-.7-1.4-1.3-2.2-1.8h4zM350 7.4zm1.2-5.2h4c-.7.4-1.5 1-2.2 1.7-.7.7-1.2 1.5-1.8 2.3v-4zm-1.1 24.1zm1.2-2v-4c.5.8 1.1 1.5 1.8 2.2.7.7 1.4 1.3 2.2 1.8h-4zm11 1.5zm11.1-5.7v4h-4c1.6-1 3-2.3 4-4z"/><path id="Fill-487" class="st0" d="M365 15.8c.7-.7 1.1-1.7 1.1-2.7 0-2.1-1.7-3.8-3.8-3.8-1 0-2 .4-2.7 1.1-.7.7-1.1 1.7-1.1 2.7 0 2.1 1.7 3.8 3.8 3.8.5 0 .9-.1 1.3-.2.6-.2 1-.5 1.4-.9zm-3.2-3.9c.1-.1.3-.1.5-.1v-.4.4c.7 0 1.3.6 1.3 1.3 0 .4-.1.7-.4 1-.3.3-.6.4-1 .4-.7 0-1.3-.6-1.3-1.3.1-.6.4-1.1.9-1.3zm.5 4.6z"/></g><g id="Group-3"><path id="Fill-463" class="st0" d="M198.7 111.5H185v-1.3c0-1.6-.6-3.1-1.8-4.3-1.1-1.2-2.7-1.8-4.3-1.8l-11.8-.1c-1.6 0-3.1.6-4.3 1.8-1.2 1.2-1.8 2.7-1.8 4.3v1.3h-.8c-3.1 0-6 1.2-8.2 3.4s-3.5 5.1-3.5 8.2l-.1 21.6c0 6.4 5.2 11.7 11.6 11.7l38.6.1c1.2 0 2.4-.2 3.5-.5 4.7-1.5 8.2-5.9 8.2-11.1l.1-21.6c0-3.1-1.2-6-3.4-8.2-2.2-2.2-5.2-3.5-8.3-3.5zm7.8 33.3c0 4.4-3.6 7.9-7.9 7.9l-38.6-.1c-4.4 0-7.9-3.6-7.9-7.9l.1-21.7c0-2.1.8-4.1 2.3-5.6.9-.9 2-1.6 3.2-1.9.8-.2 1.5-.4 2.4-.4h2.7c1 0 1.9-.8 1.9-1.9V110c0-.6.2-1.2.7-1.6.4-.4 1-.7 1.6-.7h11.8c.6 0 1.2.2 1.6.7.4.4.7 1 .7 1.6v3.2c0 1 .8 1.9 1.9 1.9l15.7.1c2.1 0 4.1.8 5.6 2.3 1.5 1.5 2.3 3.5 2.3 5.6l-.1 21.7z"/><path id="Fill-464" class="st0" d="M173.3 118.5c-8.5 0-15.5 6.9-15.5 15.4s6.9 15.5 15.4 15.5c1.6 0 3.2-.2 4.6-.7 6.3-2 10.9-7.8 10.9-14.7.1-8.5-6.8-15.5-15.4-15.5zm-.1 27.2c-6.5 0-11.7-5.3-11.7-11.8 0-5.2 3.5-9.7 8.2-11.2 1.1-.3 2.3-.5 3.5-.5 6.6 0 11.8 5.3 11.8 11.8 0 6.4-5.3 11.7-11.8 11.7z"/><path id="Fill-465" class="st0" d="M202.1 119.5h-9.3c-1 0-1.9.8-1.9 1.9v5.3c0 .5.2 1 .5 1.3s.8.6 1.3.6h9.3c.2 0 .4 0 .6-.1.8-.2 1.3-.9 1.3-1.8v-5.3c0-.5-.2-1-.5-1.3-.3-.4-.8-.6-1.3-.6zm-1.9 5.3h-5.5v-1.6h5.5v1.6z"/></g><path id="Fill-544" class="st0" d="M279.1 423.6c.3 0 .5-.1.7-.1.7-.3 1.2-1 1.1-1.7V411c0-1-.8-1.9-1.9-1.9-1 0-1.9.8-1.9 1.9v10.8c.2 1 1 1.8 2 1.8"/><path id="Fill-545" class="st0" d="M279.2 430.7c.3 0 .5-.1.7-.1.7-.3 1.2-1 1.1-1.7v-1.4c0-1-.8-1.9-1.9-1.9-1 0-1.9.8-1.9 1.9v1.4c.1 1 .9 1.8 2 1.8"/></g></g></svg>